<svg width="24" height="24" viewBox="0 0 24 24" fill="none" xmlns="http://www.w3.org/2000/svg">
<path d="M0 9C0 4.02944 4.02944 0 9 0H15C19.9706 0 24 4.02944 24 9V15C24 19.9706 19.9706 24 15 24H9C4.02944 24 0 19.9706 0 15V9Z" fill="white"/>
<path d="M12 3L12.8224 9.44675C12.9377 10.3506 13.6494 11.0623 14.5532 11.1776L21 12L14.5532 12.8224C13.6494 12.9377 12.9377 13.6494 12.8224 14.5532L12 21L11.1776 14.5532C11.0623 13.6494 10.3506 12.9377 9.44675 12.8224L3 12L9.44675 11.1776C10.3506 11.0623 11.0623 10.3506 11.1776 9.44675L12 3Z" fill="black"/>
</svg>
